<svg xmlns="http://www.w3.org/2000/svg" width="90" height="61.648" viewBox="0 0 90 61.648">
  <defs>
    <style>
      .cls-1 {
        fill: #fff;
        fill-rule: evenodd;
      }
    </style>
  </defs>
  <g id="Group_42" data-name="Group 42" transform="translate(-4256 -706)">
    <path id="Path_185" data-name="Path 185" class="cls-1" d="M4302.381,716.468V765.9c7.706-6.107,17.738-9.451,28.643-9.451a41.419,41.419,0,0,1,7.415.582v-50.6a39.928,39.928,0,0,0-7.415-.436c-11.2.145-21.664,3.926-28.643,10.468Zm28.643,43.037a44.092,44.092,0,0,0-26.171,8.143H4346V718.5h-4.653v40.42a1.322,1.322,0,0,1-.581,1.163,1.132,1.132,0,0,1-1.164.291,40.828,40.828,0,0,0-8.578-.873Zm-34.168,8.143c-6.833-5.235-16.284-8.142-25.88-8.142a40.822,40.822,0,0,0-8.578.872,1.13,1.13,0,0,1-1.163-.291,1.8,1.8,0,0,1-.582-1.163V718.5H4256v49.144Zm2.617-1.745V716.469c-6.833-6.543-17.011-10.323-28.352-10.323a39.928,39.928,0,0,0-7.415.436v50.6a40.284,40.284,0,0,1,7.415-.582c10.76,0,20.937,3.344,28.352,9.3Z"/>
  </g>
</svg>
