<svg xmlns="http://www.w3.org/2000/svg" width="381" height="121.111" viewBox="0 0 381 121.111">
  <defs>
    <style>
      .cls-1 {
        fill: #d82427;
      }
    </style>
  </defs>
  <g id="Group_112" data-name="Group 112" transform="translate(-198 -363.283)">
    <g id="Group_111" data-name="Group 111">
      <path id="Path_475" data-name="Path 475" class="cls-1" d="M537.5,431.529a27.6,27.6,0,0,1,20.938-2.328,28.072,28.072,0,1,1-29.122,44.851c-1.937-2.468-3.679-2.674-6.473-2.269-21.766,3.158-43.318,2.508-64.563-3.816-3.52-1.048-4.848-2.77-4.881-6.385-.173-18.444,6.341-33.313,22.672-42.952a13.179,13.179,0,0,1,6.249-1.672c10.755-.165,21.52-.242,32.271.033a15.983,15.983,0,0,1,8.447,2.433c4.987,3.537,9.441,7.826,14.462,12.1m-28.26-9.609c-.724,2.969-1.56,6-2.181,9.08-.516,2.56-1.717,3.894-4.514,3.725s-5.609-.11-8.41-.016c-2.354.081-3.661-.8-4.162-3.217-.679-3.284-1.654-6.506-2.446-9.542-5.282-1.191-9.4.339-13.336,3.362-11.279,8.672-15.71,20.45-16.166,34.207-.083,2.5.688,3.638,3.2,4.381,17.19,5.081,34.726,5.657,52.419,4.318,3.65-.276,7.27-.94,11.156-1.458-2.187-6.088-3.081-11.88-.979-17.357,2.038-5.311,5.158-10.207,8.1-15.854-5.459-6.189-11.1-13.8-22.684-11.629M550.7,432.839a23.445,23.445,0,1,0,23.684,23.212A23.555,23.555,0,0,0,550.7,432.839m-56.234-3.11c8.437.73,9.134.125,9.45-7.855H492.452c.733,2.854,1.389,5.408,2.017,7.855"/>
      <path id="Path_476" data-name="Path 476" class="cls-1" d="M522.008,389.26A23.546,23.546,0,0,1,498.4,412.915a23.566,23.566,0,1,1,.213-47.132,23.482,23.482,0,0,1,23.4,23.477m-23.666,18.916c10.231.1,19.022-8.409,18.948-18.549a3.685,3.685,0,0,0-1.981-2.825c-6.755-1.74-13.6-3.112-20.374-4.8a15.869,15.869,0,0,0-13.321,2.472,4.8,4.8,0,0,0-1.8,3.075c-1.232,10.782,7.577,20.514,18.53,20.624M515.277,381.8c-1.591-5.871-8.038-10.621-15.333-11.322-6.125-.588-13.159,2.639-15.529,7.3,10.985-3.887,20.132,4.486,30.862,4.019"/>
      <path id="Path_477" data-name="Path 477" class="cls-1" d="M498.854,449.64c-1.389-2.14-2.819-3.379-2.753-4.532.058-1.026,1.946-2.864,2.722-2.719a4.435,4.435,0,0,1,3.03,2.872c.139,1.03-1.487,2.3-3,4.379"/>
      <path id="Path_478" data-name="Path 478" class="cls-1" d="M498.811,454.131c1.517,2.052,3.021,3.208,3.054,4.406.029.985-1.776,2.906-2.609,2.822a4.292,4.292,0,0,1-3.137-2.672c-.172-1.077,1.344-2.422,2.692-4.556"/>
      <path id="Path_479" data-name="Path 479" class="cls-1" d="M547.375,462.593c4.966-5.053,9.627-9.817,14.316-14.554,1.215-1.227,2.513-2.966,4.371-1.136,1.823,1.794.235,3.151-1.015,4.4-5.041,5.052-10.139,10.048-15.123,15.155-1.892,1.94-3.464,1.93-5.329.015s-4.108-3.529-5.806-5.586c-.722-.874-.481-2.542-.678-3.849,1.25.133,2.784-.143,3.693.484a54.425,54.425,0,0,1,5.571,5.069"/>
    </g>
    <g id="doc">
      <path id="Path_468" data-name="Path 468" class="cls-1" d="M213.376,377.062c0-1.984.118-3.621-.028-5.233-.234-2.587.832-3.388,3.384-3.361,10.719.111,21.439.047,32.158.047,9.173,0,18.347-.068,27.519.074a6.6,6.6,0,0,1,4.007,1.652c3.706,3.424,7.276,7.007,10.723,10.694a6.037,6.037,0,0,1,1.548,3.733c.088,25.561.044,51.122.106,76.683.005,2.268-.674,3.135-3,3.051-3.988-.145-7.986-.04-12.347-.04,0,1.606,0,2.917,0,4.227-.008,4.314-.008,4.319-4.2,4.32H207.073c-1.958,0-3.925-.11-5.873.026-2.47.173-3.183-.9-3.171-3.273.079-15.151.04-30.3.04-45.454,0-14.533.082-29.067-.068-43.6-.031-2.961.945-3.756,3.728-3.6,3.693.207,7.408.051,11.647.051m3.331,83.92h72.915v-3.613q0-29.533-.008-59.065c-.005-4.836,1.157-10.191-.543-14.359-1.653-4.056-6.174-7.021-9.674-10.2a7.865,7.865,0,0,0-4.749-2.009c-18.244-.138-36.49-.088-54.735-.088h-3.206ZM201.376,380.35v89.232h72.73v-5.22h-3.544q-26.286,0-52.573,0c-4.61,0-4.613,0-4.613-4.482q0-37.884,0-75.766V380.35Z"/>
      <path id="Path_469" data-name="Path 469" class="cls-1" d="M253.176,398.7c7.421,0,14.843-.056,22.262.068.97.016,1.925.959,2.887,1.472-.954.544-1.9,1.555-2.862,1.561q-22.418.15-44.835,0c-.952-.006-1.9-.993-2.846-1.523.94-.527,1.873-1.494,2.822-1.51,7.523-.126,15.048-.07,22.572-.07"/>
      <path id="Path_470" data-name="Path 470" class="cls-1" d="M253.143,420.352c7.419,0,14.839-.055,22.256.066.98.017,1.945.934,2.917,1.434-.944.547-1.884,1.566-2.832,1.572q-22.412.15-44.822,0c-.963-.006-1.919-.969-2.878-1.486.931-.53,1.854-1.5,2.794-1.519,7.52-.126,15.043-.071,22.565-.071"/>
      <path id="Path_471" data-name="Path 471" class="cls-1" d="M252.87,445.162c-7.317,0-14.635.065-21.95-.073-1.053-.02-2.089-1.014-3.133-1.557,1.052-.517,2.1-1.479,3.155-1.486q22.105-.147,44.211,0c1.062.008,2.118.97,3.177,1.489-1.066.543-2.125,1.534-3.2,1.554-7.417.138-14.839.073-22.259.073"/>
      <path id="Path_472" data-name="Path 472" class="cls-1" d="M252.808,387.811q10.8,0,21.6.006a7.93,7.93,0,0,1,2.726.255,2.184,2.184,0,0,1,1.055,1.592c.039.353-.678.98-1.172,1.154a6.649,6.649,0,0,1-2.135.17q-21.754.01-43.509.005a2.963,2.963,0,0,1-1.221-.036c-.814-.411-1.559-.959-2.332-1.452.821-.564,1.634-1.6,2.464-1.617,7.506-.127,15.016-.075,22.524-.077"/>
      <path id="Path_473" data-name="Path 473" class="cls-1" d="M253.175,409.446q10.8,0,21.6.009a5.924,5.924,0,0,1,2.407.256,2.237,2.237,0,0,1,1,1.634c.028.348-.716.965-1.212,1.1a9.479,9.479,0,0,1-2.449.142q-21.444.009-42.886,0a4.818,4.818,0,0,1-1.832-.063,11.074,11.074,0,0,1-1.983-1.451c.637-.536,1.246-1.49,1.915-1.535,2.765-.182,5.548-.093,8.325-.1q7.558-.006,15.118,0"/>
      <path id="Path_474" data-name="Path 474" class="cls-1" d="M252.872,434.249c-7.3,0-14.611.064-21.914-.07-1.058-.019-2.1-.983-3.146-1.51,1.06-.538,2.117-1.537,3.182-1.544q22.066-.154,44.137,0c1.058.008,2.109,1.04,3.163,1.6-1.066.508-2.125,1.439-3.2,1.458-7.4.129-14.814.068-22.222.068"/>
    </g>
    <g id="dollardoc">
      <path id="Path_480" data-name="Path 480" class="cls-1" d="M389.929,363.283c-.018,7.753.015,15.506-.085,23.259-.032,2.4.972,3.221,3.273,3.2,7.655-.068,15.312-.026,23.309-.026.056,1.211.148,2.265.149,3.318.008,23.536-.054,47.07.063,70.606.02,4.1-1.045,7.267-4.791,9.235H340.064c-3.83-1.667-5.066-4.594-5.051-8.721q.172-46.071,0-92.144c-.016-4.132,1.25-7.041,5.051-8.727Zm21.861,31.09c-6.526,0-12.639.041-18.75-.012-5.182-.044-7.718-2.588-7.773-7.781-.057-5.3-.114-10.6.031-15.888.061-2.239-.566-2.963-2.888-2.944-12.875.109-25.751.049-38.628.056-3.811,0-4.213.41-4.213,4.251q0,46.026,0,92.051c0,3.814.416,4.238,4.231,4.238q31.779.011,63.559,0c4.035,0,4.429-.388,4.43-4.323q0-33.288,0-66.572Z"/>
      <path id="Path_481" data-name="Path 481" class="cls-1" d="M414.506,385.087H394.533V365.126l19.973,19.961"/>
      <rect id="Rectangle_60" data-name="Rectangle 60" class="cls-1" width="59.79" height="4.219" transform="translate(345.621 434.916)"/>
      <rect id="Rectangle_61" data-name="Rectangle 61" class="cls-1" width="59.774" height="4.104" transform="translate(345.634 455.499)"/>
      <path id="Path_482" data-name="Path 482" class="cls-1" d="M405.348,445.168c.607,4.4.607,4.4-3.415,4.4q-26.408,0-52.813,0h-3.407v-4.4Z"/>
      <rect id="Rectangle_62" data-name="Rectangle 62" class="cls-1" width="33.75" height="4.231" transform="translate(345.619 424.393)"/>
      <path id="Path_483" data-name="Path 483" class="cls-1" d="M347.19,407.929a5.656,5.656,0,0,1-1.572-4.443v-.867h5.775v.61a2.8,2.8,0,0,0,.546,1.989,1.947,1.947,0,0,0,1.443.545,1.739,1.739,0,0,0,1.428-.609,2.484,2.484,0,0,0-.192-3.208,6.281,6.281,0,0,0-1.733-1.107q-1.043-.465-2.262-.931a9.786,9.786,0,0,1-2.262-1.219,6.075,6.075,0,0,1-1.732-1.973,6.412,6.412,0,0,1-.69-3.176q0-6,5.871-6.963v-1.86h2.952v1.86a6.925,6.925,0,0,1,4.652,1.941,7.225,7.225,0,0,1,1.444,4.926h-5.583v-.482a3.307,3.307,0,0,0-.417-1.684,1.383,1.383,0,0,0-1.283-.722,1.619,1.619,0,0,0-1.412.625,2.289,2.289,0,0,0-.449,1.364,2.241,2.241,0,0,0,.722,1.765,6.555,6.555,0,0,0,1.813,1.106q1.091.467,2.342.9a9.359,9.359,0,0,1,2.342,1.2,6.276,6.276,0,0,1,1.813,2.021,6.662,6.662,0,0,1,.721,3.337,6.3,6.3,0,0,1-1.7,4.845,8.528,8.528,0,0,1-5.005,1.924v2.888H351.81v-2.888a8.089,8.089,0,0,1-4.62-1.716"/>
    </g>
  </g>
</svg>
